<svg id="Capa_1" data-name="Capa 1" xmlns="http://www.w3.org/2000/svg" viewBox="0 0 542.89 231.33"><defs><style>.cls-1{fill:#fff;}</style></defs><path class="cls-1" d="M167.66,46.9,163,71.59l-4.77,24.67-9.6,49.34-9.89,49.27-5,24.63-2.59,12.3L129.75,238c-.42,2-1,4.15-1.51,6.26l-2.14,8.27-.92-8.57a55.66,55.66,0,0,1,.15-9.45,74.43,74.43,0,0,0,.11-9,43.28,43.28,0,0,0-1.35-8.66,35.35,35.35,0,0,0-3.33-8A44.14,44.14,0,0,0,109,195.86,78.23,78.23,0,0,0,93.54,187c-2.71-1.29-5.56-2.28-8.35-3.39-1.42-.5-2.86-.95-4.29-1.43s-2.85-1-4.32-1.36c-2.9-.82-5.79-1.7-8.75-2.36l-4.4-1.07c-1.48-.34-3-.62-4.45-.93C47.12,174,35.08,172.33,23,171L5.68,169.2l17.3-2c35.07-4,70.28-6.66,105.5-8.51s70.5-2.88,105.76-3.23,70.54.07,105.78.86c17.63.39,35.25,1,52.86,1.67l26.42,1.08,26.41,1.3-52.86-1.23q-26.43-.51-52.86-.74-52.86-.57-105.7.35c-35.23.6-70.44,1.7-105.6,3.68S58.42,167.26,23.42,171l0-3.83c12.17,1.34,24.32,3.07,36.34,5.6,1.51.32,3,.61,4.51,1l4.48,1.1c3,.69,5.94,1.59,8.9,2.44,1.49.4,3,.91,4.41,1.4s2.93,1,4.38,1.49c2.87,1.14,5.79,2.17,8.59,3.51a82.53,82.53,0,0,1,16.15,9.35,47.8,47.8,0,0,1,12.6,14.05,38.21,38.21,0,0,1,3.61,8.84,44.82,44.82,0,0,1,1.43,9.38,74.33,74.33,0,0,1-.22,9.34,56.41,56.41,0,0,0-.27,8.81l-3.07-.29c1.07-3.82,2-8,2.92-12l2.72-12.25,5.32-24.55,10.44-49.16Z" transform="translate(-5.68 -21.15)"/><path class="cls-1" d="M81.78,25.48c17.22-1,34.46-1.66,51.69-2.4S168,21.82,185.2,21.49s34.51-.5,51.8-.1c8.64.21,17.29.56,25.95,1.38,4.33.42,8.67.94,13,1.79a49.21,49.21,0,0,1,6.52,1.68,21.63,21.63,0,0,1,3.26,1.38,10.21,10.21,0,0,1,3.16,2.45l.5.6-.07.79a9.51,9.51,0,0,1-1.51,4.23,18.47,18.47,0,0,1-2.53,3.09,40.61,40.61,0,0,1-5.83,4.69,116.15,116.15,0,0,1-12.58,7.21C258.3,55,249.52,58.74,240.7,62.34S223,69.26,214,72.54,196.13,79,187.13,82.06s-18,6.12-27,9.1L133,99.94l-27.21,8.51-13.62,4.2-13.65,4.11L132.33,98l26.89-9.42q13.44-4.73,26.84-9.56c17.84-6.47,35.67-13,53.18-20.25,8.76-3.6,17.46-7.36,25.85-11.61a113.57,113.57,0,0,0,12.11-7A39.44,39.44,0,0,0,282.46,36c1.55-1.51,2.8-3.3,2.91-4.79l.44,1.38a6.76,6.76,0,0,0-1.94-1.45A18.74,18.74,0,0,0,281.18,30a45.7,45.7,0,0,0-6-1.56c-4.12-.82-8.36-1.35-12.61-1.77-8.51-.82-17.1-1.23-25.69-1.55-17.19-.57-34.42-.59-51.66-.57s-34.47.23-51.71.43Z" transform="translate(-5.68 -21.15)"/><path class="cls-1" d="M179.1,148.37a14.29,14.29,0,0,0,4.56-3.12A18.87,18.87,0,0,0,187,141a23.66,23.66,0,0,0,3.11-10,48.43,48.43,0,0,0,.47-5.27,44,44,0,0,0-.3-5.37A61.77,61.77,0,0,0,188,109.67l-1.34-4.49,4.19,2.15a16.21,16.21,0,0,0,6.44,1.24,71.61,71.61,0,0,0,7.29-.2c4.92-.35,9.89-.93,14.9-1.4s10.05-.86,15.15-.89A68.62,68.62,0,0,1,250,107.49l4.45,1-3.76,2.6c-7.42,5.12-15,10-22.6,14.77q-5.73,3.55-11.51,7l-5.79,3.45c-1,.55-1.91,1.19-2.89,1.73s-2,1-3.06,1.46l.71-2.29a21.42,21.42,0,0,0,2.64,4.54,17.73,17.73,0,0,0,3.79,3.75,12.19,12.19,0,0,0,4.91,2.11,13.42,13.42,0,0,0,5.56-.21,13.82,13.82,0,0,1-5.65,1.19,13.18,13.18,0,0,1-5.79-1.47,18.56,18.56,0,0,1-4.87-3.56,25.35,25.35,0,0,1-2-2.26,21.85,21.85,0,0,1-1.76-2.57l-.75-1.29,1.46-1c.92-.63,1.83-1.3,2.76-1.92s2-1.08,2.92-1.66l5.76-3.43q5.76-3.45,11.45-7c7.59-4.73,15.1-9.59,22.44-14.66l.7,3.59a63.72,63.72,0,0,0-14.46-1.31c-4.91,0-9.85.41-14.81.87s-9.93,1-15,1.41a72.85,72.85,0,0,1-7.71.21,30.86,30.86,0,0,1-4-.38,14.27,14.27,0,0,1-4.15-1.32l2.84-2.34a65.48,65.48,0,0,1,2.39,11.34,47.63,47.63,0,0,1,.33,5.86c0,1-.05,2-.13,3a15.51,15.51,0,0,1-.4,3,26,26,0,0,1-5.29,10.63A17.84,17.84,0,0,1,179.1,148.37Z" transform="translate(-5.68 -21.15)"/><path class="cls-1" d="M287.72,121.21c2.37-1.89,4.77-3.73,7.18-5.56s4.84-3.64,7.29-5.4l.75,2.08a73,73,0,0,0-22.8,7.51,60.92,60.92,0,0,0-9.95,6.52c-3,2.52-5.88,5.34-7.57,8.57a7.08,7.08,0,0,0-1,4.59c.26,1.25,1.4,2.27,3.05,2.9a19.18,19.18,0,0,0,5.5,1,42.43,42.43,0,0,0,5.95-.15c8-.71,16-2.68,24-4.65a100.44,100.44,0,0,1-23.7,7.46,47.42,47.42,0,0,1-6.35.57,20,20,0,0,1-6.63-.91,9.85,9.85,0,0,1-3.28-1.8,7,7,0,0,1-2.22-3.46,8.23,8.23,0,0,1-.07-3.94,14.18,14.18,0,0,1,1.22-3.35,25.62,25.62,0,0,1,3.83-5.47,37.77,37.77,0,0,1,4.71-4.42,57.59,57.59,0,0,1,10.76-6.78,64.83,64.83,0,0,1,24.25-6.45l4.61-.27-3.86,2.35c-2.58,1.57-5.2,3.09-7.81,4.62S290.38,119.76,287.72,121.21Z" transform="translate(-5.68 -21.15)"/><path class="cls-1" d="M337.79,109.35q10.27-1.38,20.59-2.54c3.43-.41,6.87-.78,10.3-1.15L379,104.55l7.26-.77-6.51,3.44-14.51,7.66-14.55,7.57-14.6,7.46q-7.29,3.75-14.64,7.39l-1.32-3.65c7.74-1.32,15.28-1,22.75-.64,3.74.2,7.46.45,11.18.7s7.42.56,11.13.78c7.41.44,14.82.83,22.22.71a102.84,102.84,0,0,0,22.1-2.36,87.87,87.87,0,0,1-22,4.18c-3.73.29-7.48.44-11.22.49s-7.49,0-11.22-.07-7.47-.23-11.19-.36-7.44-.32-11.14-.44-7.4-.16-11.06-.09l-2.74.06-2.71.2c-1.83.08-3.55.45-5.31.69l-11.5,1.56,10.17-5.22q7.32-3.75,14.67-7.41l14.69-7.35,14.75-7.24,14.8-7.14.74,2.66-10.35.6c-3.45.19-6.9.38-10.35.54Q348.16,109,337.79,109.35Z" transform="translate(-5.68 -21.15)"/><path class="cls-1" d="M488.4,192.35a187.67,187.67,0,0,0,10.25-22.63c3-7.73,5.61-15.59,8.1-23.48s4.83-15.84,7-23.83,4.29-16,6.15-24l3.16,1.73a157.45,157.45,0,0,1-14.17,13.15A125.48,125.48,0,0,1,493,124.38a104.3,104.3,0,0,1-17.62,8.24,93.13,93.13,0,0,1-18.91,4.64l0-3.66a140.7,140.7,0,0,1,23.85,5.29,193.74,193.74,0,0,1,22.59,9c3.67,1.68,7.31,3.38,11,5,1.84.79,3.66,1.63,5.52,2.35l2.79,1.12,2.82,1a67,67,0,0,0,23.59,3.88c-2,.09-4,.24-6.05.28-2-.12-4-.1-6-.37l-3-.42c-.5-.08-1-.13-1.5-.22l-1.49-.33-3-.65c-1-.2-2-.54-2.93-.8-7.83-2.21-15.27-5.46-22.7-8.51A211.69,211.69,0,0,0,479.33,142,146.37,146.37,0,0,0,456,137.27l-13.35-1.58,13.31-2.08A97.58,97.58,0,0,0,474.06,129a101.45,101.45,0,0,0,16.92-8,124.49,124.49,0,0,0,15.44-10.73,172.78,172.78,0,0,0,13.95-12.72l4.79-4.82-1.64,6.55c-2,8.11-4.23,16.11-6.62,24.09s-4.91,15.91-7.72,23.74-5.73,15.64-9.17,23.23A158.35,158.35,0,0,1,488.4,192.35Z" transform="translate(-5.68 -21.15)"/></svg>