<?xml version="1.0" encoding="utf-8"?>
<!-- Generator: Adobe Illustrator 24.0.1, SVG Export Plug-In . SVG Version: 6.00 Build 0)  -->
<svg version="1.1" id="Capa_7" xmlns="http://www.w3.org/2000/svg" xmlns:xlink="http://www.w3.org/1999/xlink" x="0px" y="0px"
	 viewBox="0 0 900.64 754.07" style="enable-background:new 0 0 900.64 754.07;" xml:space="preserve">
<g>
	<g>
		<path d="M446.82,373.38c-0.05,0.05-0.11,0.11-0.16,0.17v-0.34C446.71,373.26,446.77,373.32,446.82,373.38z"/>
	</g>
	<g>
		<path d="M886.51,728.11L765.47,699.4c-12.32-2.92-25.83-5.82-38.91-8.43c-13.18-2.68-26.42-5.2-39.69-7.6
			c-26.54-4.73-53.21-8.73-79.9-12.07c-45.68-5.84-91.49-9.57-136.92-10.29v-72.62c49.33,1,98.14,5.1,146.37,11.92
			c18.25,2.58,36.4,5.58,54.52,8.77c-75.3-77.97-150.02-156.53-224.12-235.7c-0.05-0.06-0.11-0.12-0.16-0.17v0.34
			c-47.15,50.41-94.59,100.54-142.23,150.47c-27.59,28.83-55.24,57.6-82.97,86.31c18.58-3.19,37.2-6.2,55.89-8.83
			c48.15-6.68,96.79-11.1,145.92-12.77v72.68c-45.35,1.42-90.99,5.36-136.51,11.2c-26.78,3.32-53.54,7.22-80.2,11.77
			c-13.32,2.3-26.63,4.69-39.87,7.27c-13.16,2.5-26.7,5.2-39.2,7.97L9.35,725.77l85.77-83.7c55.23-53.9,110.79-107.46,166.56-160.81
			c50.39-48.08,100.99-95.95,151.88-143.52c-47.14-50.52-93.85-101.46-140.29-152.67c-26.08-28.48-51.79-57.33-77.47-86.22
			c-25.78-28.78-51.19-57.93-76.44-87.24c29.31,25.25,58.46,50.66,87.25,76.43c28.89,25.68,57.75,51.38,86.22,77.47
			c51.61,46.77,102.93,93.83,153.83,141.32v0.02l0.01-0.01c50.93-47.51,102.29-94.59,153.94-141.38l42.94-38.9l43.3-38.55
			c28.8-25.76,57.96-51.17,87.28-76.4c-25.23,29.33-50.64,58.48-76.41,87.27l-38.55,43.3l-38.9,42.94
			c-46.44,51.25-93.17,102.22-140.33,152.76c107.23,100.31,213.29,201.8,318.38,304.25L886.51,728.11z"/>
	</g>
	<g>
		<polygon points="446.67,306.84 446.66,306.85 446.66,306.83 		"/>
	</g>
	<g>
		<polygon points="463.3,525 463.3,431.44 429.97,431.44 430.09,525 446.64,571.73 		"/>
	</g>
	<g>
		<polygon points="633.82,321.22 540.26,321.22 540.26,354.55 633.82,354.43 680.54,337.88 		"/>
	</g>
	<g>
		<polygon points="429.97,151.33 429.97,244.89 463.3,244.89 463.18,151.33 446.64,104.6 		"/>
	</g>
	<g>
		<polygon points="259.59,354.4 353.15,354.4 353.15,321.07 259.59,321.18 212.86,337.73 		"/>
	</g>
</g>
</svg>
