<?xml version="1.0" encoding="utf-8"?>
<!-- Generator: Adobe Illustrator 24.0.1, SVG Export Plug-In . SVG Version: 6.00 Build 0)  -->
<svg version="1.1" id="Imalogotipo" xmlns="http://www.w3.org/2000/svg" xmlns:xlink="http://www.w3.org/1999/xlink" x="0px"
	 y="0px" viewBox="0 0 1000 208.29" style="enable-background:new 0 0 1000 208.29;" xml:space="preserve">
<style type="text/css">
	.st0{display:none;}
	.st1{display:inline;}
</style>
<g>
	<g>
		<path d="M258.57,48.91c12.96,0.41,21.21,0.62,24.76,0.62c4.83,0,10.26-0.13,16.28-0.39c6.38-0.2,10.31-0.31,11.8-0.31
			c7.2,0,13.15,0.75,17.86,2.24c4.71,1.49,8.6,4.22,11.69,8.17c3.09,3.96,4.63,8.74,4.63,14.35c0,4.63-1.08,9.1-3.24,13.42
			c-2.16,4.32-5.17,8-9.02,11.03c-3.86,3.03-7.77,5.21-11.72,6.52c-3.96,1.31-8.07,1.97-12.34,1.97c-3.19,0-6.74-0.36-10.65-1.08
			l-1.31-4.71l0.69-0.77c3.86,0.87,6.99,1.31,9.41,1.31c6.74,0,12.15-2.22,16.24-6.67c4.09-4.45,6.13-10.14,6.13-17.08
			c0-6.99-2.12-12.57-6.36-16.74c-4.24-4.16-10.66-6.25-19.24-6.25c-4.68,0-9.82,0.87-15.43,2.62c-0.46,3.96-0.69,13.52-0.69,28.69
			v35.71l0.08,15.04c0.05,5.81,0.21,9.56,0.46,11.26c0.26,1.7,0.63,2.83,1.12,3.39c0.49,0.57,1.43,1.04,2.82,1.43
			c1.39,0.38,4.81,0.68,10.26,0.89l0.62,0.46v3.86l-0.62,0.62c-13.11-0.41-20.49-0.62-22.14-0.62c-1.75,0-9.1,0.2-22.06,0.62
			l-0.62-0.62v-3.86l0.62-0.46c4.78-0.2,7.97-0.46,9.56-0.77c1.59-0.31,2.66-0.7,3.2-1.2c0.54-0.49,0.98-1.53,1.31-3.12
			c0.33-1.59,0.53-5.14,0.58-10.64l0.08-16.28V85.86l-0.15-15.04c-0.05-5.86-0.19-9.64-0.43-11.34c-0.23-1.7-0.59-2.83-1.08-3.39
			c-0.49-0.56-1.43-1.03-2.82-1.39c-1.39-0.36-4.81-0.64-10.26-0.85l-0.62-0.54v-3.86L258.57,48.91z"/>
		<path d="M412.45,146.57l-2.47,5.55c-5.35,3.44-10.12,5.68-14.31,6.71c-4.19,1.03-7.93,1.54-11.22,1.54
			c-6.17,0-12.02-1.21-17.55-3.62c-5.53-2.42-10.03-6.51-13.5-12.27c-3.47-5.76-5.21-12.7-5.21-20.83c0-5.4,0.67-10.27,2.01-14.62
			c1.34-4.34,2.74-7.57,4.2-9.68c1.47-2.11,3.95-4.45,7.44-7.02s7.2-4.63,11.11-6.17c3.91-1.54,8.12-2.31,12.65-2.31
			c6.17,0,11.61,1.45,16.31,4.36c4.71,2.9,8.01,6.62,9.91,11.14c1.9,4.53,2.85,9.33,2.85,14.42c0,1.6-0.08,3.14-0.23,4.63
			l-0.85,0.85c-3.5,0.77-8.2,1.29-14.11,1.54c-5.91,0.26-9.82,0.39-11.72,0.39H363c0.1,10.65,2.78,18.49,8.02,23.53
			c5.25,5.04,11.67,7.56,19.28,7.56c3.6,0,7.06-0.62,10.37-1.85s6.83-2.96,10.53-5.17L412.45,146.57z M363,115.02
			c0.93,0.15,4.49,0.34,10.68,0.54c6.2,0.21,10.78,0.31,13.77,0.31c7.15,0,11.49-0.13,13.04-0.39c0.05-1.23,0.08-2.19,0.08-2.85
			c0-7.97-1.62-13.9-4.86-17.78c-3.24-3.88-7.66-5.82-13.27-5.82c-6.12,0-10.89,2.19-14.31,6.56C364.71,99.95,363,106.43,363,115.02
			z"/>
		<path d="M471.68,53.31v-3.24l0.62-0.7c9.82-1.13,18.1-3.03,24.84-5.71l1.47,0.92c-0.57,5.91-0.85,17.77-0.85,35.56v50.52
			c0,5.19,0.09,9.73,0.27,13.61c0.18,3.88,0.5,6.18,0.96,6.91s1.22,1.31,2.28,1.77c1.05,0.46,4.05,0.9,8.99,1.31l0.69,0.62v2.93
			l-0.69,0.7c-5.55-0.36-9.87-0.54-12.96-0.54c-2.78,0-6.74,0.18-11.88,0.54l-0.85-0.85c0.15-5.04,0.23-8.56,0.23-10.57
			c0-0.26,0.03-1.23,0.08-2.93c-2.83,2.06-5.66,4.35-8.48,6.87c-4.17,3.7-6.89,6.02-8.18,6.94c-2.37,1.18-5.74,1.77-10.1,1.77
			c-7.1,0-13.13-1.75-18.09-5.25c-4.96-3.49-8.5-7.96-10.61-13.38c-2.11-5.42-3.16-10.99-3.16-16.7c0-5.81,1.09-11.4,3.28-16.78
			c2.18-5.37,5.29-9.29,9.33-11.76c4.04-2.47,8.43-5.03,13.19-7.67c4.76-2.65,9.47-3.97,14.15-3.97c6.53,0,12.75,1.62,18.67,4.86
			l-0.31-17.2c-0.1-5.96-0.26-10.12-0.46-12.46c-0.21-2.34-0.46-3.73-0.77-4.16c-0.31-0.44-0.84-0.76-1.58-0.96
			c-0.75-0.21-3.87-0.31-9.37-0.31L471.68,53.31z M484.87,102.29c-3.19-3.6-6.72-6.35-10.61-8.25c-3.88-1.9-7.78-2.85-11.69-2.85
			c-4.32,0-8.34,1.17-12.07,3.51c-3.73,2.34-6.42,5.81-8.06,10.41c-1.65,4.6-2.47,9.6-2.47,15c0,9,2.28,16.22,6.83,21.67
			c4.55,5.45,10.27,8.17,17.16,8.17c3.75,0,7.08-0.86,9.99-2.58c2.9-1.72,5.3-4.05,7.17-6.98c1.88-2.93,2.97-5.86,3.28-8.79
			c0.31-2.93,0.46-8.3,0.46-16.12V102.29z"/>
		<path d="M545.73,84.4l1.46,1c-0.31,2.98-0.54,8.28-0.7,15.89l5.78-7.33c1.9-2.42,3.59-4.28,5.06-5.59
			c1.46-1.31,3.17-2.32,5.13-3.04c1.95-0.72,3.96-1.08,6.02-1.08c2.26,0,4.39,0.46,6.4,1.39l0.54,1.08
			c-0.83,6.84-1.29,12.86-1.39,18.05h-3.47c-2.06-4.73-5.37-7.1-9.95-7.1c-3.19,0-5.97,1.02-8.34,3.05
			c-2.36,2.03-3.95,4.58-4.74,7.64c-0.8,3.06-1.2,6.93-1.2,11.61v8.56c0,1.54,0.1,5.32,0.31,11.34s0.43,9.49,0.66,10.41
			c0.23,0.93,0.59,1.61,1.08,2.05c0.49,0.44,1.13,0.73,1.93,0.89s4.46,0.41,10.99,0.77l0.7,0.62v3.24l-0.7,0.7
			c-6.84-0.41-13.99-0.62-21.44-0.62c-5.92,0-12.09,0.2-18.51,0.62l-0.69-0.7v-3.24l0.69-0.62c4.99-0.31,7.8-0.54,8.45-0.7
			c0.64-0.15,1.21-0.47,1.7-0.96c0.49-0.49,0.82-1.23,1-2.24c0.18-1,0.39-4.32,0.62-9.95s0.35-9.88,0.35-12.76v-15.2
			c0-2.06-0.1-4.86-0.31-8.41c-0.2-3.55-0.38-5.73-0.5-6.56c-0.13-0.82-0.53-1.43-1.19-1.81c-0.67-0.39-2.01-0.58-4.01-0.58
			l-6.48-0.08l-0.69-0.62V90.8l0.62-0.62C530.71,89,538.99,87.07,545.73,84.4z"/>
		<path d="M583.59,122.58c0-6.12,1.26-12.02,3.78-17.7c2.52-5.68,6.9-10.59,13.15-14.73c6.25-4.14,13.66-6.21,22.25-6.21
			c10.8,0,19.59,3.41,26.38,10.22c6.79,6.81,10.18,15.57,10.18,26.26c0,11.77-3.9,21.47-11.69,29.08
			c-7.79,7.61-17.19,11.42-28.19,11.42c-7.2,0-13.63-1.94-19.28-5.82c-5.66-3.88-9.83-8.62-12.53-14.23
			C584.94,135.25,583.59,129.16,583.59,122.58z M598.17,117.26c0,7.2,0.93,13.64,2.78,19.32c1.85,5.68,4.78,10.24,8.79,13.69
			c4.01,3.45,8.59,5.17,13.73,5.17c6.07,0,11.08-2.4,15.04-7.21c3.96-4.81,5.94-12.05,5.94-21.72c0-10.95-2.15-19.92-6.44-26.92
			S627.53,89.1,619.46,89.1c-6.68,0-11.91,2.42-15.66,7.25C600.05,101.19,598.17,108.15,598.17,117.26z"/>
		<path d="M667.66,49.45l0.62-0.54c9.41,0.41,16.74,0.62,21.98,0.62c5.81,0,13.65-0.18,23.53-0.54c3.65-0.1,6.3-0.15,7.95-0.15
			c13.01,0,21.83,2.37,26.46,7.1c4.63,4.73,6.94,10.34,6.94,16.81c0,4.32-1.13,8.56-3.39,12.73c-2.26,4.17-5.61,7.73-10.03,10.68
			c-4.42,2.96-10.52,5.18-18.28,6.67c1.44,2,4.04,5.48,7.79,10.41l10.95,14.5c3.55,4.78,7.35,9.83,11.42,15.15
			c4.06,5.32,6.68,8.33,7.87,9.02c1.18,0.7,2.2,1.12,3.05,1.27c0.85,0.15,2.2,0.23,4.05,0.23l0.62,0.62v3.62l-0.7,0.7
			c-2.47-0.31-5.4-0.46-8.79-0.46c-3.65,0-7.64,0.15-11.96,0.46c-3.55-4.32-9.13-11.8-16.74-22.45
			c-8.85-12.34-17.9-23.78-27.15-34.33l0.77-2.39c2.67,0.15,4.76,0.23,6.25,0.23c8.9,0,15.86-2.13,20.9-6.4
			c5.04-4.27,7.56-10.18,7.56-17.74c0-6.79-2.26-11.92-6.79-15.39c-4.53-3.47-10.65-5.21-18.36-5.21c-5.4,0-10.49,0.75-15.27,2.24
			c-0.77,1.13-1.16,10.77-1.16,28.92v35.71l0.08,15.04c0.05,5.81,0.2,9.56,0.46,11.26c0.26,1.7,0.63,2.83,1.12,3.39
			c0.49,0.57,1.43,1.04,2.82,1.43c1.39,0.38,4.81,0.68,10.26,0.89l0.62,0.46v3.86l-0.62,0.62c-0.26,0-4.78-0.15-13.58-0.46
			c-3.65-0.1-6.51-0.15-8.56-0.15c-1.59,0-8.95,0.2-22.06,0.62l-0.62-0.62v-3.86l0.62-0.46c4.78-0.2,7.97-0.46,9.57-0.77
			c1.59-0.31,2.66-0.7,3.2-1.2c0.54-0.49,0.97-1.53,1.31-3.12c0.33-1.59,0.53-5.14,0.58-10.64l0.08-16.28V85.86l-0.15-15.04
			c-0.05-5.86-0.19-9.64-0.42-11.34c-0.23-1.7-0.59-2.83-1.08-3.39c-0.49-0.56-1.43-1.03-2.82-1.39c-1.39-0.36-4.81-0.64-10.26-0.85
			l-0.62-0.54V49.45z"/>
		<path d="M877.38,144.87l-2.93,7.17c-11.42,5.81-23.6,8.72-36.56,8.72c-18.57,0-33.64-5.27-45.24-15.81
			c-11.59-10.54-17.39-24.32-17.39-41.34c0-11.72,2.89-21.97,8.68-30.74c5.78-8.77,13.42-15.32,22.91-19.67
			c9.49-4.34,20.14-6.52,31.97-6.52c6.84,0,13.6,0.72,20.29,2.16c6.68,1.44,12.27,3.16,16.74,5.17l0.54,0.77
			c-1.18,2.88-2.29,10-3.31,21.37l-0.54,0.62h-3.63l-0.62-0.62l-0.77-13.11c-3.75-2.98-8.29-5.31-13.61-6.98
			c-5.32-1.67-10.87-2.51-16.62-2.51c-8.69,0-16.48,1.87-23.37,5.59c-6.89,3.73-12.24,9.13-16.04,16.2
			c-3.81,7.07-5.71,15.72-5.71,25.96c0,10.28,2.24,19.31,6.71,27.07c4.47,7.77,10.58,13.73,18.32,17.9
			c7.74,4.16,16.77,6.25,27.11,6.25c4.58,0,8.97-0.44,13.19-1.31s7.73-1.95,10.53-3.24c2.8-1.29,5.49-2.85,8.06-4.71L877.38,144.87z
			"/>
		<path d="M884.4,157.83v-3.7l18.59-22.99l44.04-56.69c6.68-8.54,11.19-14.66,13.5-18.36h-3.16l-12.42-0.07
			c-10.9,0-19.68,0.17-26.34,0.5c-6.66,0.34-11.06,0.68-13.19,1.04c-2.14,0.36-3.45,0.86-3.94,1.5c-0.49,0.65-0.89,2.17-1.2,4.59
			l-1.08,10.18l-0.7,0.7h-3.62l-0.7-0.7c0.26-3.91,0.39-7.02,0.39-9.33c0-6.27-0.13-11.24-0.39-14.89l0.7-0.7
			c18.36,0.41,31.19,0.62,38.49,0.62c12.14,0,28.08-0.2,47.82-0.62l0.7,0.7v3.93c-5.66,6.68-9.62,11.47-11.88,14.35l-64.25,82.76
			l31.24,0.54c6.22,0,12.5-0.15,18.82-0.46c6.33-0.31,10.49-0.62,12.5-0.92c2-0.31,3.38-0.76,4.13-1.35
			c0.75-0.59,1.25-1.18,1.5-1.77c0.26-0.59,0.67-2.35,1.23-5.29l1.7-10.34l0.7-0.62h3.62l0.62,0.62
			c-0.36,3.29-0.72,12.24-1.08,26.84l-0.69,0.62c-21.7-0.41-38.82-0.62-51.37-0.62c-8.79,0-23.32,0.2-43.58,0.62L884.4,157.83z"/>
	</g>
	<g class="st0">
		<path class="st1" d="M-41.43-23.98v251.53h1082.86V-23.98H-41.43z M1018.82,204.95H-18.82V-1.37h1037.65V204.95z"/>
	</g>
	<g>
		<g>
			<path d="M129.33,103.36l-0.04,0.04v-0.08C129.3,103.33,129.32,103.35,129.33,103.36z"/>
		</g>
		<g>
			<path d="M242.58,194.73l-31.18-7.39c-3.17-0.76-6.65-1.5-10.02-2.18c-3.4-0.69-6.81-1.33-10.23-1.96
				c-6.83-1.22-13.71-2.24-20.57-3.11c-11.77-1.5-23.57-2.46-35.26-2.64v-18.7c12.7,0.25,25.27,1.31,37.7,3.07
				c4.7,0.67,9.37,1.44,14.04,2.25c-19.39-20.08-38.64-40.31-57.72-60.7c-0.01-0.01-0.03-0.03-0.04-0.04v0.08
				c-12.14,12.99-24.36,25.89-36.63,38.76c-7.11,7.43-14.23,14.84-21.37,22.23c4.78-0.83,9.57-1.6,14.39-2.27
				c12.41-1.72,24.93-2.87,37.59-3.29v18.72c-11.69,0.36-23.44,1.38-35.16,2.88c-6.91,0.86-13.79,1.86-20.66,3.04
				c-3.44,0.59-6.86,1.21-10.27,1.87c-3.4,0.65-6.88,1.33-10.1,2.05l-30.42,6.74l22.09-21.56c14.23-13.89,28.54-27.68,42.9-41.42
				c12.98-12.39,26.01-24.71,39.11-36.97c-12.14-13.01-24.17-26.13-36.13-39.32c-6.72-7.34-13.34-14.77-19.95-22.21
				c-6.64-7.41-13.19-14.91-19.69-22.47c7.55,6.51,15.06,13.04,22.48,19.68c7.44,6.61,14.87,13.23,22.2,19.95
				c13.3,12.05,26.52,24.17,39.62,36.4c0,0.01,0,0.01,0,0.01c13.13-12.24,26.35-24.37,39.65-36.42l11.06-10.02l11.15-9.93
				c7.41-6.63,14.92-13.18,22.48-19.67c-6.49,7.55-13.04,15.06-19.67,22.48l-9.93,11.15l-10.02,11.06
				c-11.96,13.2-24,26.33-36.14,39.35c27.62,25.83,54.93,51.97,81.99,78.36L242.58,194.73z"/>
		</g>
		<g>
			<polygon points="133.58,142.41 133.58,118.32 124.99,118.32 125.02,142.41 129.28,154.45 			"/>
		</g>
		<g>
			<polygon points="177.49,89.93 153.4,89.93 153.4,98.51 177.49,98.48 189.53,94.22 			"/>
		</g>
		<g>
			<polygon points="124.99,46.17 124.99,70.27 133.58,70.27 133.55,46.17 129.28,34.14 			"/>
		</g>
		<g>
			<polygon points="81.11,98.47 105.21,98.47 105.21,89.89 81.11,89.92 69.07,94.18 			"/>
		</g>
	</g>
</g>
</svg>
